<svg xmlns="http://www.w3.org/2000/svg" width="900" height="520" viewBox="0 0 900 520" role="img" aria-label="Reed-Solomon detail">
  <rect width="900" height="520" rx="26" fill="#ffffff"/>
  <rect x="36" y="36" width="828" height="448" rx="22" fill="#dbeafe" opacity="0.86"/>
  <text x="72" y="96" font-family="Inter, Arial, sans-serif" font-size="42" font-weight="900" fill="#172554">Reed-Solomon</text>
  <text x="72" y="136" font-family="Inter, Arial, sans-serif" font-size="21" font-weight="700" fill="#1d4ed8" opacity="0.82">input -&gt; steps -&gt; result</text>
  <path d="M190 135 C275 100, 355 170, 440 135" fill="none" stroke="#1d4ed8" stroke-width="5" opacity="0.24"/><path d="M440 135 C525 100, 605 170, 690 135" fill="none" stroke="#1d4ed8" stroke-width="5" opacity="0.24"/><path d="M690 135 C775 100, 127 285, 212 250" fill="none" stroke="#1d4ed8" stroke-width="5" opacity="0.24"/><path d="M212 250 C297 215, 377 285, 462 250" fill="none" stroke="#1d4ed8" stroke-width="5" opacity="0.24"/><path d="M462 250 C547 215, 627 285, 712 250" fill="none" stroke="#1d4ed8" stroke-width="5" opacity="0.24"/><path d="M712 250 C797 215, 105 400, 190 365" fill="none" stroke="#1d4ed8" stroke-width="5" opacity="0.24"/><path d="M190 365 C275 330, 355 400, 440 365" fill="none" stroke="#1d4ed8" stroke-width="5" opacity="0.24"/><path d="M440 365 C525 330, 605 400, 690 365" fill="none" stroke="#1d4ed8" stroke-width="5" opacity="0.24"/>
  <circle cx="190" cy="135" r="34" fill="#1d4ed8" opacity="0.78"/><circle cx="440" cy="135" r="24" fill="#60a5fa" opacity="0.88"/><circle cx="690" cy="135" r="29" fill="#1d4ed8" opacity="0.78"/><circle cx="212" cy="250" r="34" fill="#60a5fa" opacity="0.88"/><circle cx="462" cy="250" r="24" fill="#1d4ed8" opacity="0.78"/><circle cx="712" cy="250" r="29" fill="#60a5fa" opacity="0.88"/><circle cx="190" cy="365" r="34" fill="#1d4ed8" opacity="0.78"/><circle cx="440" cy="365" r="24" fill="#60a5fa" opacity="0.88"/><circle cx="690" cy="365" r="29" fill="#1d4ed8" opacity="0.78"/>
  <rect x="648" y="344" width="158" height="64" rx="14" fill="#1d4ed8" opacity="0.88"/>
  <text x="727" y="384" font-family="Inter, Arial, sans-serif" font-size="20" font-weight="800" fill="#ffffff" text-anchor="middle">verified fact</text>
  <path d="M116 418 L220 340 L326 392 L438 304 L556 354" fill="none" stroke="#60a5fa" stroke-width="10" stroke-linecap="round" stroke-linejoin="round" opacity="0.58"/>
</svg>